<svg xmlns="http://www.w3.org/2000/svg" version="1.1" xmlns:xlink="http://www.w3.org/1999/xlink" width="1000" height="1000"><metadata><rdf:RDF xmlns:rdf="http://www.w3.org/1999/02/22-rdf-syntax-ns#" xmlns:dc="http://purl.org/dc/elements/1.1/"><rdf:Description><dc:creator>RealFaviconGenerator</dc:creator><dc:source>https://realfavicongenerator.net</dc:source></rdf:Description></rdf:RDF></metadata><style>
    #light-icon {
      display: inline;
    }
    #dark-icon {
      display: none;
    }

    @media (prefers-color-scheme: dark) {
      #light-icon {
        display: none;
      }
      #dark-icon {
        display: inline;
      }
    }
  </style><g id="light-icon"><svg xmlns="http://www.w3.org/2000/svg" version="1.1" xmlns:xlink="http://www.w3.org/1999/xlink" width="1000" height="1000"><g><g transform="matrix(1.953125,0,0,1.953125,0,0)"><svg xmlns="http://www.w3.org/2000/svg" width="512" height="512" viewBox="0 0 512 512" fill="none"><rect width="512" height="512" fill="#1A221E"></rect><circle cx="255.5" cy="255.5" r="228.5" fill="#4A5D4E"></circle><path d="M255.5 219.708V415.125M255.5 219.708C255.5 204.9 249.618 190.699 239.147 180.228C228.676 169.757 214.475 163.875 199.667 163.875H129.875C126.173 163.875 122.623 165.346 120.005 167.963C117.387 170.581 115.917 174.131 115.917 177.833V359.292C115.917 362.994 117.387 366.544 120.005 369.162C122.623 371.779 126.173 373.25 129.875 373.25H213.625C224.731 373.25 235.382 377.662 243.235 385.515C251.088 393.368 255.5 404.019 255.5 415.125M255.5 219.708C255.5 204.9 261.382 190.699 271.853 180.228C282.324 169.757 296.525 163.875 311.333 163.875H381.125C384.827 163.875 388.377 165.346 390.995 167.963C393.613 170.581 395.083 174.131 395.083 177.833V359.292C395.083 362.994 393.613 366.544 390.995 369.162C388.377 371.779 384.827 373.25 381.125 373.25H297.375C286.269 373.25 275.618 377.662 267.765 385.515C259.912 393.368 255.5 404.019 255.5 415.125" stroke="#FDFBF7" stroke-width="20" stroke-linecap="round" stroke-linejoin="round"></path><path d="M203.5 76C215.603 75.9975 227.335 80.1767 236.71 87.8303C246.086 95.4838 252.529 106.142 254.95 118H256C256 106.861 260.425 96.178 268.302 88.3015C276.178 80.425 286.861 76 298 76H329.5C329.5 82.8944 328.142 89.7213 325.504 96.0909C322.865 102.46 318.998 108.248 314.123 113.123C304.277 122.969 290.924 128.5 277 128.5H266.5V202H245.5V128.5H224.5C213.361 128.5 202.678 124.075 194.802 116.198C186.925 108.322 182.5 97.6391 182.5 86.5V76H203.5Z" fill="#FDFBF7"></path></svg></g></g></svg></g><g id="dark-icon"><svg xmlns="http://www.w3.org/2000/svg" version="1.1" xmlns:xlink="http://www.w3.org/1999/xlink" width="1000" height="1000"><g><g transform="matrix(1.953125,0,0,1.953125,0,0)"><svg xmlns="http://www.w3.org/2000/svg" width="512" height="512" viewBox="0 0 512 512" fill="none"><rect width="512" height="512" fill="#D8E2DC"></rect><circle cx="255.5" cy="255.5" r="228.5" fill="#FDFBF7"></circle><path d="M255.5 219.708V415.125M255.5 219.708C255.5 204.9 249.618 190.699 239.147 180.228C228.676 169.757 214.475 163.875 199.667 163.875H129.875C126.173 163.875 122.623 165.346 120.005 167.963C117.387 170.581 115.917 174.131 115.917 177.833V359.292C115.917 362.994 117.387 366.544 120.005 369.162C122.623 371.779 126.173 373.25 129.875 373.25H213.625C224.731 373.25 235.382 377.662 243.235 385.515C251.088 393.368 255.5 404.019 255.5 415.125M255.5 219.708C255.5 204.9 261.383 190.699 271.853 180.228C282.324 169.757 296.526 163.875 311.333 163.875H381.125C384.827 163.875 388.377 165.346 390.995 167.963C393.613 170.581 395.083 174.131 395.083 177.833V359.292C395.083 362.994 393.613 366.544 390.995 369.162C388.377 371.779 384.827 373.25 381.125 373.25H297.375C286.269 373.25 275.618 377.662 267.765 385.515C259.912 393.368 255.5 404.019 255.5 415.125" stroke="#1A221E" stroke-width="20" stroke-linecap="round" stroke-linejoin="round"></path><path d="M203.5 76C215.603 75.9975 227.335 80.1767 236.71 87.8303C246.086 95.4838 252.529 106.142 254.95 118H256C256 106.861 260.425 96.178 268.302 88.3015C276.178 80.425 286.861 76 298 76H329.5C329.5 82.8944 328.142 89.7213 325.504 96.0909C322.865 102.46 318.998 108.248 314.123 113.123C304.277 122.969 290.924 128.5 277 128.5H266.5V202H245.5V128.5H224.5C213.361 128.5 202.678 124.075 194.802 116.198C186.925 108.322 182.5 97.6391 182.5 86.5V76H203.5Z" fill="#1A221E"></path></svg></g></g></svg></g></svg>